<?xml version="1.0" standalone="no"?><svg xmlns="http://www.w3.org/2000/svg" viewBox="0 0 1440 320"><path fill="#0099ff" fill-opacity="0.1" d="M0,224L62.6,96L125.2,288L187.8,96L250.4,32L313,256L375.7,128L438.3,256L500.9,96L563.5,288L626.1,160L688.7,224L751.3,64L813.9,160L876.5,0L939.1,64L1001.7,32L1064.3,288L1127,192L1189.6,224L1252.2,288L1314.8,128L1377.4,224L1440,160L1440,0L1377.4,0L1314.8,0L1252.2,0L1189.6,0L1127,0L1064.3,0L1001.7,0L939.1,0L876.5,0L813.9,0L751.3,0L688.7,0L626.1,0L563.5,0L500.9,0L438.3,0L375.7,0L313,0L250.4,0L187.8,0L125.2,0L62.6,0L0,0Z"></path></svg>