<?xml version="1.0" standalone="no"?><svg xmlns="http://www.w3.org/2000/svg" viewBox="0 0 1440 320"><path fill="#0099ff" fill-opacity="1" d="M0,224L30,197.3C60,171,120,117,180,85.3C240,53,300,43,360,64C420,85,480,139,540,170.7C600,203,660,213,720,202.7C780,192,840,160,900,154.7C960,149,1020,171,1080,181.3C1140,192,1200,192,1260,186.7C1320,181,1380,171,1410,165.3L1440,160L1440,0L1410,0C1380,0,1320,0,1260,0C1200,0,1140,0,1080,0C1020,0,960,0,900,0C840,0,780,0,720,0C660,0,600,0,540,0C480,0,420,0,360,0C300,0,240,0,180,0C120,0,60,0,30,0L0,0Z"></path></svg>